<svg width="24" height="24" viewBox="0 0 24 24" fill="none" xmlns="http://www.w3.org/2000/svg">
<path fill-rule="evenodd" clip-rule="evenodd" d="M10.2361 5C9.8573 5 9.51103 5.214 9.34164 5.55279L8.61803 7H7C5.89543 7 5 7.89543 5 9V17C5 18.1046 5.89543 19 7 19H17C18.1046 19 19 18.1046 19 17V9C19 7.89543 18.1046 7 17 7H15.382L14.6584 5.55279C14.489 5.214 14.1427 5 13.7639 5H10.2361ZM7.55279 4.65836C8.06096 3.64201 9.09975 3 10.2361 3H13.7639C14.9002 3 15.939 3.64201 16.4472 4.65836L16.618 5H17C19.2091 5 21 6.79086 21 9V17C21 19.2091 19.2091 21 17 21H7C4.79086 21 3 19.2091 3 17V9C3 6.79086 4.79086 5 7 5H7.38197L7.55279 4.65836Z" fill="#F2F2F2"/>
<path fill-rule="evenodd" clip-rule="evenodd" d="M12 15C13.1046 15 14 14.1046 14 13C14 11.8954 13.1046 11 12 11C10.8954 11 10 11.8954 10 13C10 14.1046 10.8954 15 12 15ZM12 17C14.2091 17 16 15.2091 16 13C16 10.7909 14.2091 9 12 9C9.79086 9 8 10.7909 8 13C8 15.2091 9.79086 17 12 17Z" fill="#F2F2F2"/>
</svg>
