<svg width="25" height="24" viewBox="0 0 25 24" fill="none" xmlns="http://www.w3.org/2000/svg">
<path fill-rule="evenodd" clip-rule="evenodd" d="M12.5 7.21187L11.1662 6.01806C10.4572 5.38348 9.52575 5 8.5 5C6.29086 5 4.5 6.79086 4.5 9C4.5 11.9996 5.83975 14.212 7.53224 15.8501C9.25438 17.5169 11.2798 18.5183 12.3857 18.9794C12.4626 19.0114 12.5374 19.0114 12.6143 18.9794C13.7202 18.5183 15.7456 17.5169 17.4678 15.8501C19.1602 14.2119 20.5 11.9996 20.5 9.00004C20.5 6.7909 18.7091 5 16.5 5C15.4742 5 14.5428 5.38348 13.8338 6.01806L12.5 7.21187ZM12.5 4.52779C11.4385 3.57771 10.0367 3 8.5 3C5.18629 3 2.5 5.68629 2.5 9C2.5 16.3511 9.17146 19.8061 11.616 20.8254C12.1855 21.0628 12.8145 21.0628 13.384 20.8254C15.8285 19.8061 22.5 16.3512 22.5 9.00005C22.5 5.68634 19.8137 3 16.5 3C14.9633 3 13.5615 3.57771 12.5 4.52779Z" fill="#F2F2F2"/>
</svg>
