<svg width="81" height="80" viewBox="0 0 81 80" fill="none" xmlns="http://www.w3.org/2000/svg">
<path d="M11.1803 57.709C10.9377 56.6527 10.7891 55.5423 10.6927 54.3621C10.5939 53.1527 10.5457 51.7977 10.5223 50.2776L18.3328 45.4482L18.5949 45.2856C19.6939 44.6032 20.7992 43.9169 22.0444 43.5966C23.1314 43.317 24.2636 43.2598 25.3732 43.4286C26.6444 43.6219 27.8132 44.1934 28.9753 44.7616L29.2525 44.897L31.0137 45.7541C32.7783 46.6128 32.9888 46.67 33.1294 46.6885C33.3667 46.7198 33.6079 46.6995 33.8367 46.6292C33.9723 46.5876 34.1703 46.4962 35.7675 45.3559L44.1196 39.3925L44.43 39.1702C45.7109 38.2513 46.9962 37.3292 48.4794 36.9334C49.7713 36.5886 51.1271 36.5598 52.4325 36.8493C53.9312 37.1817 55.2546 38.0484 56.5733 38.912L56.8929 39.1209L70.4972 47.9864C70.4887 50.4712 70.4532 52.5755 70.3073 54.3621C70.2692 54.8279 70.223 55.2829 70.1661 55.728L53.2531 44.7063C51.3777 43.4841 51.142 43.3918 50.9889 43.3578C50.7279 43.2999 50.4567 43.3057 50.1983 43.3746C50.0468 43.4151 49.8153 43.5174 47.9935 44.8181L39.6414 50.7815L39.3706 50.9753C38.2415 51.785 37.1067 52.5987 35.7952 53.0017C34.6512 53.3533 33.4449 53.4544 32.2584 53.298C30.8981 53.1187 29.6437 52.5052 28.3956 51.8947L28.0964 51.7486L26.3352 50.8915C24.6965 50.094 24.5031 50.0396 24.371 50.0195C24.1491 49.9857 23.9227 49.9971 23.7053 50.0531C23.5758 50.0864 23.3889 50.16 21.8389 51.1184L11.1803 57.709Z" fill="#2C3349"/>
<path d="M37.1667 30C37.1667 33.6819 34.1819 36.6667 30.5 36.6667C26.8181 36.6667 23.8333 33.6819 23.8333 30C23.8333 26.3181 26.8181 23.3333 30.5 23.3333C34.1819 23.3333 37.1667 26.3181 37.1667 30Z" fill="#2C3349"/>
<path fill-rule="evenodd" clip-rule="evenodd" d="M35.024 10H45.976C49.5886 9.99997 52.5025 9.99994 54.8621 10.1927C57.2916 10.3912 59.4255 10.8106 61.3998 11.8166C64.5359 13.4144 67.0856 15.9641 68.6834 19.1002C69.6894 21.0745 70.1088 23.2084 70.3073 25.6379C70.5001 27.9975 70.5 30.9113 70.5 34.5239V45.4761C70.5 49.0887 70.5001 52.0025 70.3073 54.3621C70.1088 56.7916 69.6894 58.9255 68.6834 60.8998C67.0856 64.0359 64.5359 66.5856 61.3998 68.1834C59.4255 69.1894 57.2916 69.6088 54.8621 69.8073C52.5025 70.0001 49.5887 70 45.9761 70H35.0239C31.4113 70 28.4975 70.0001 26.1379 69.8073C23.7084 69.6088 21.5745 69.1894 19.6002 68.1834C16.4641 66.5856 13.9144 64.0359 12.3166 60.8998C11.3106 58.9255 10.8912 56.7916 10.6927 54.3621C10.4999 52.0025 10.5 49.0886 10.5 45.476V34.524C10.5 30.9114 10.4999 27.9975 10.6927 25.6379C10.8912 23.2084 11.3106 21.0745 12.3166 19.1002C13.9144 15.9641 16.4641 13.4144 19.6002 11.8166C21.5745 10.8106 23.7084 10.3912 26.1379 10.1927C28.4975 9.99994 31.4114 9.99997 35.024 10ZM26.6808 16.8373C24.6636 17.0021 23.5046 17.3093 22.6268 17.7566C20.7451 18.7153 19.2153 20.2451 18.2566 22.1268C17.8093 23.0046 17.5021 24.1636 17.3373 26.1808C17.1693 28.2369 17.1667 30.878 17.1667 34.6667V45.3333C17.1667 49.122 17.1693 51.7631 17.3373 53.8192C17.5021 55.8364 17.8093 56.9954 18.2566 57.8732C19.2153 59.7549 20.7451 61.2847 22.6268 62.2434C23.5046 62.6907 24.6636 62.9979 26.6808 63.1627C28.7369 63.3307 31.378 63.3333 35.1667 63.3333H45.8333C49.622 63.3333 52.2631 63.3307 54.3192 63.1627C56.3364 62.9979 57.4954 62.6907 58.3732 62.2434C60.2549 61.2847 61.7847 59.7549 62.7434 57.8732C63.1907 56.9954 63.4979 55.8364 63.6627 53.8192C63.8307 51.7631 63.8333 49.122 63.8333 45.3333V34.6667C63.8333 30.878 63.8307 28.2369 63.6627 26.1808C63.4979 24.1636 63.1907 23.0046 62.7434 22.1268C61.7847 20.2451 60.2549 18.7153 58.3732 17.7566C57.4954 17.3093 56.3364 17.0021 54.3192 16.8373C52.2631 16.6693 49.622 16.6667 45.8333 16.6667H35.1667C31.378 16.6667 28.7369 16.6693 26.6808 16.8373Z" fill="#2C3349"/>
</svg>
