<svg width="70" height="70" viewBox="0 0 70 70" fill="none" xmlns="http://www.w3.org/2000/svg">
<path fill-rule="evenodd" clip-rule="evenodd" d="M47.521 47.521C48.66 46.3819 50.5068 46.3819 51.6458 47.521L55.4167 51.2919L59.1877 47.521C60.3267 46.3819 62.1734 46.3819 63.3125 47.521C64.4515 48.66 64.4515 50.5067 63.3125 51.6457L59.5415 55.4167L63.3125 59.1876C64.4515 60.3267 64.4515 62.1734 63.3125 63.3124C62.1734 64.4514 60.3267 64.4514 59.1877 63.3124L55.4167 59.5415L51.6458 63.3124C50.5068 64.4514 48.66 64.4514 47.521 63.3124C46.382 62.1734 46.382 60.3267 47.521 59.1876L51.292 55.4167L47.521 51.6457C46.382 50.5067 46.382 48.66 47.521 47.521Z" fill="#2C3349"/>
<path d="M26.25 32.0834C29.4717 32.0834 32.0833 29.4717 32.0833 26.25C32.0833 23.0284 29.4717 20.4167 26.25 20.4167C23.0283 20.4167 20.4167 23.0284 20.4167 26.25C20.4167 29.4717 23.0283 32.0834 26.25 32.0834Z" fill="#2C3349"/>
<path d="M43.487 37.9535C43.7131 37.8932 43.9503 37.8882 44.1788 37.9388C44.2087 37.9455 44.3762 37.9824 45.1187 38.4476C46.4838 39.3027 48.2836 38.8893 49.1388 37.5242C49.9939 36.1591 49.5806 34.3593 48.2155 33.5041C47.4071 32.9977 46.5192 32.4828 45.4419 32.2439C44.2997 31.9906 43.1133 32.0158 41.983 32.3174C40.6851 32.6638 39.5604 33.4706 38.4397 34.2746L38.1681 34.4691L30.86 39.6871C29.4625 40.6849 29.2892 40.7649 29.1706 40.8013C28.9704 40.8628 28.7593 40.8805 28.5517 40.8532C28.4286 40.8369 28.2445 40.787 26.7004 40.0355L25.1594 39.2856L24.9168 39.1672C23.9 38.6699 22.8773 38.1699 21.765 38.0007C20.7941 37.8531 19.8034 37.9031 18.8523 38.1477C17.7628 38.428 16.7956 39.0286 15.834 39.6257L15.6046 39.7679L10.1332 43.1511C8.76308 43.9982 8.33918 45.7956 9.18634 47.1657C10.0335 48.5358 11.8309 48.9597 13.201 48.1125L18.6725 44.7294C20.0287 43.8907 20.1923 43.8263 20.3056 43.7972C20.4958 43.7482 20.6939 43.7382 20.8881 43.7678C21.0037 43.7853 21.1729 43.833 22.6068 44.5308L24.1478 45.2807L24.4096 45.4086C25.5017 45.9427 26.5993 46.4796 27.7895 46.6365C28.8277 46.7733 29.8832 46.6849 30.8842 46.3773C32.0318 46.0246 33.0248 45.3126 34.0128 44.6041L34.2497 44.4345L41.5578 39.2166C43.1518 38.0784 43.3544 37.9889 43.487 37.9535Z" fill="#2C3349"/>
<path fill-rule="evenodd" clip-rule="evenodd" d="M30.2085 8.75H39.7915C42.9526 8.74997 45.5022 8.74995 47.5668 8.91864C49.6926 9.09232 51.5598 9.45928 53.2874 10.3395C56.0314 11.7376 58.2624 13.9686 59.6605 16.7126C60.5407 18.4402 60.9077 20.3074 61.0814 22.4332C61.2501 24.4978 61.25 27.0474 61.25 30.2084V35C61.25 36.6108 59.9442 37.9167 58.3333 37.9167C56.7225 37.9167 55.4167 36.6108 55.4167 35V30.3333C55.4167 27.0182 55.4144 24.7073 55.2674 22.9082C55.1232 21.1431 54.8544 20.129 54.463 19.3609C53.6241 17.7145 52.2855 16.3759 50.6391 15.537C49.871 15.1457 48.8569 14.8768 47.0918 14.7326C45.2927 14.5856 42.9818 14.5833 39.6667 14.5833H30.3333C27.0182 14.5833 24.7073 14.5856 22.9082 14.7326C21.1431 14.8768 20.129 15.1457 19.3609 15.537C17.7145 16.3759 16.3759 17.7145 15.537 19.3609C15.1457 20.129 14.8768 21.1431 14.7326 22.9082C14.5856 24.7073 14.5833 27.0182 14.5833 30.3333V39.6667C14.5833 42.9818 14.5856 45.2927 14.7326 47.0918C14.8768 48.8569 15.1457 49.871 15.537 50.6391C16.3759 52.2855 17.7145 53.6241 19.3609 54.463C20.129 54.8544 21.1431 55.1232 22.9082 55.2674C24.7073 55.4144 27.0182 55.4167 30.3333 55.4167H35C36.6108 55.4167 37.9167 56.7225 37.9167 58.3333C37.9167 59.9442 36.6108 61.25 35 61.25H30.2084C27.0474 61.25 24.4978 61.2501 22.4332 61.0814C20.3074 60.9077 18.4402 60.5407 16.7126 59.6605C13.9686 58.2624 11.7376 56.0314 10.3395 53.2874C9.45928 51.5598 9.09232 49.6926 8.91864 47.5668C8.74995 45.5022 8.74997 42.9526 8.75 39.7915V30.2085C8.74997 27.0474 8.74995 24.4978 8.91864 22.4332C9.09232 20.3074 9.45928 18.4402 10.3395 16.7126C11.7376 13.9686 13.9686 11.7376 16.7126 10.3395C18.4402 9.45928 20.3074 9.09232 22.4332 8.91864C24.4978 8.74995 27.0474 8.74997 30.2085 8.75Z" fill="#2C3349"/>
</svg>
