<svg width="24" height="24" viewBox="0 0 24 24" fill="none" xmlns="http://www.w3.org/2000/svg">
<path fill-rule="evenodd" clip-rule="evenodd" d="M2.2987 13.9485C2.66311 13.3589 3.30685 13 4 13C4.18465 13 4.40465 12.9998 4.64874 12.9941C4.45125 12.6687 4.28114 12.3251 4.13946 11.9659C3.43717 10.1851 3.48496 8.16532 4.09415 6.25074C4.35224 5.43961 5.09544 4.8807 5.94633 4.85786C6.79722 4.83502 7.56934 5.35325 7.87057 6.14936C8.20681 7.03799 8.61551 7.38849 9.07883 7.59947C9.37431 7.73401 9.74451 7.83445 10.2234 7.90109C10.8861 5.61013 12.9547 4 15.5 4C16.2489 4 16.9603 4.17626 17.5468 4.41027C17.786 4.50571 18.0282 4.62032 18.2626 4.75357L19.6826 4.52534C20.3939 4.41104 21.1116 4.68803 21.5616 5.25049C22.0117 5.81294 22.1245 6.57396 21.857 7.24278L20.996 9.3951C20.9268 12.8064 19.9547 15.4988 18.1017 17.3517C16.182 19.2715 13.6067 20 11 20C9.29691 20 7.53687 19.7188 6.00722 19.107C4.5019 18.5048 3.01027 17.4927 2.21115 15.8944C1.90116 15.2745 1.93429 14.5382 2.2987 13.9485ZM19 9L20 6.5L17.7778 6.85714C17.7604 6.84034 17.7422 6.82354 17.7232 6.80676C17.2594 6.39562 16.354 6 15.5 6C13.5 6 12 7.5 12 9.5V10C11.2749 10 10.6083 9.97079 10 9.88918C9.0729 9.76479 8.28151 9.51865 7.62583 9.06863C6.93186 8.59232 6.38991 7.88762 6 6.85714C5.64688 7.96696 5.54315 9.05897 5.68881 10.0514C5.83955 11.0784 6.25736 11.9987 6.94224 12.7218C7.46973 13.2787 8.15565 13.7185 9 14C8.29354 14.471 7.36526 14.7201 6.47634 14.8519C6.43848 14.8576 6.4007 14.863 6.36301 14.8682C5.40651 15 4.50897 15 4 15C4.39985 15.7997 5.11946 16.4395 6.03097 16.9195C7.39909 17.6398 9.19955 18 11 18C15.5 18 19 15.5 19 9Z" fill="#8F94A3"/>
</svg>
