<?xml version="1.0" standalone="no"?>
<!DOCTYPE svg PUBLIC "-//W3C//DTD SVG 20010904//EN"
 "http://www.w3.org/TR/2001/REC-SVG-20010904/DTD/svg10.dtd">
<svg version="1.0" xmlns="http://www.w3.org/2000/svg"
 width="700.000000pt" height="700.000000pt" viewBox="0 0 700.000000 700.000000"
 preserveAspectRatio="xMidYMid meet">
<metadata>
Created by potrace 1.14, written by Peter Selinger 2001-2017
</metadata>
<g transform="translate(0.000000,700.000000) scale(0.100000,-0.100000)"
fill="#000000" stroke="none">
<path d="M5336 6986 c-27 -10 -80 -55 -163 -138 -1082 -1075 -4521 -4522
-4538 -4548 -45 -69 -40 -160 13 -229 16 -21 27 -50 28 -74 4 -83 -65 -301
-178 -562 -31 -71 -55 -125 -111 -250 -18 -38 -110 -226 -205 -418 -94 -191
-173 -351 -175 -357 -1 -5 87 -99 196 -209 l199 -200 286 143 c323 162 454
225 592 286 52 23 120 53 150 67 105 47 306 121 395 147 144 40 204 42 242 7
50 -46 143 -58 213 -28 23 10 826 806 2359 2339 1807 1806 2328 2333 2344
2367 22 50 19 118 -7 168 -19 37 -1441 1460 -1478 1479 -43 22 -117 27 -162
10z"/>
</g>
</svg>
